# xmcd CD database file
# Copyright (C) 1996 Ti Kan
#
# Track frame offsets:
#  150
#  16532
#  27360
#  35800
#  53015
#  63765
#  83582
#  94940
#  108125
#  126382
#  139527
#  149715
#
# Disc length: 2153 seconds
#
# Revision: 2
# Processed by: cddbd v1.4b41PL1 Copyright (c) Steve Scherf et al.
# Submitted via: CDWizzard Release:4.12
#
DISCID=9a08670c
DTITLE=Sleepy John Estes - The Legend of Sleepy John Estes
DYEAR=1900
DGENRE=
TTITLE0=Rats In My Kitchen
TTITLE1=Someday Baby
TTITLE2=Stop That Thing
TTITLE3=Diving Duck Blues
TTITLE4=Death Valley Blues
TTITLE5=Married Woman Blues
TTITLE6=Down South Blues
TTITLE7=Who's Been Telling You, Buddy Brown
TTITLE8=Drop Down Mama
TTITLE9=You Got To Go
TTITLE10=Milk Cow Blues
TTITLE11=I'd Been Well Warned
EXTD=Delmark DD-603\n\nSleepy John Estes:  vocals and guitar\nHammie Nixo
EXTD=n:  harmonica\nJohn "Knocky" Parker:  piano\nEd Wilkinson:  bass\n\n
EXTD=Recorded March 24, 1962
EXTT0=
EXTT1=
EXTT2=
EXTT3=
EXTT4=
EXTT5=
EXTT6=
EXTT7=
EXTT8=
EXTT9=
EXTT10=
EXTT11=
PLAYORDER=
